<?xml version="1.0" encoding="UTF-8"?>
<svg xmlns="http://www.w3.org/2000/svg" width="1000pt" height="280.56pt"
     viewBox="0 0 1000 280.56" version="1.1">
    <defs>
        <clipPath id="clip1">
            <path d="M 458 0 L 1000 0 L 1000 280.558594 L 458 280.558594 Z M 458 0 "/>
        </clipPath>
    </defs>
    <g id="surface1">
        <path style=" stroke:none;fill-rule:nonzero;fill:rgb(17.298889%,34.899902%,65.899658%);fill-opacity:1;"
              d="M 419.878906 146.472656 C 419.878906 159.140625 417.398438 171.527344 401.707031 171.527344 C 386.015625 171.527344 386.015625 156.9375 386.015625 145.648438 L 386.015625 97.464844 L 355.726563 97.464844 L 355.726563 151.703125 C 355.726563 178.136719 361.234375 198.234375 392.070313 198.234375 C 406.9375 198.234375 416.851563 190.25 420.703125 182.542969 L 420.980469 182.542969 L 420.980469 196.035156 L 450.164063 196.035156 L 450.164063 97.464844 L 419.878906 97.464844 Z M 311.675781 121.96875 C 318.007813 121.96875 323.515625 125.273438 326.542969 129.402344 L 346.640625 108.476563 C 337.003906 98.839844 323.238281 95.261719 311.675781 95.261719 C 281.386719 95.261719 257.160156 115.636719 257.160156 146.75 C 257.160156 178.136719 281.386719 198.511719 311.675781 198.511719 C 323.238281 198.511719 337.277344 194.933594 346.640625 185.296875 L 326.542969 164.09375 C 323.238281 168.226563 318.28125 171.527344 311.675781 171.527344 C 296.53125 171.527344 287.445313 161.339844 287.445313 146.472656 C 287.445313 131.882813 296.53125 121.96875 311.675781 121.96875 Z M 193.832031 171.804688 C 178.6875 171.804688 169.605469 161.617188 169.605469 146.75 C 169.605469 131.882813 178.6875 121.96875 193.832031 121.96875 C 208.976563 121.96875 218.0625 132.15625 218.0625 146.75 C 218.0625 161.617188 208.976563 171.804688 193.832031 171.804688 Z M 193.832031 95.261719 C 163.546875 95.261719 139.316406 115.636719 139.316406 146.75 C 139.316406 178.136719 163.546875 198.511719 193.832031 198.511719 C 224.117188 198.511719 248.625 178.136719 248.625 146.75 C 248.347656 115.363281 224.117188 95.261719 193.832031 95.261719 Z M 47.90625 166.847656 L 31.386719 166.847656 L 31.386719 81.769531 L 50.109375 81.769531 C 76.816406 81.769531 99.394531 94.988281 99.394531 123.070313 C 99.394531 155.558594 77.367188 166.847656 47.90625 166.847656 Z M 47.355469 52.585938 L 0 52.585938 L 0 195.757813 L 51.488281 195.757813 C 94.164063 195.757813 132.160156 170.976563 132.160156 124.449219 C 132.160156 72.410156 93.613281 52.585938 47.355469 52.585938 "/>
        <g clip-path="url(#clip1)" clip-rule="nonzero">
            <path style=" stroke:none;fill-rule:nonzero;fill:rgb(0%,0%,0%);fill-opacity:1;"
                  d="M 977.148438 234.855469 L 977.148438 229.074219 L 979.898438 229.074219 C 982.105469 229.074219 984.855469 229.074219 984.855469 231.828125 C 984.855469 234.578125 982.378906 234.578125 979.898438 234.578125 Z M 988.4375 232.101563 C 988.4375 228.246094 986.234375 226.042969 981.277344 226.042969 L 973.292969 226.042969 L 973.292969 246.417969 L 977.148438 246.417969 L 977.148438 238.160156 L 979.898438 238.160156 L 984.855469 246.417969 L 988.710938 246.417969 L 983.480469 237.882813 C 986.507813 237.609375 988.4375 235.679688 988.4375 232.101563 Z M 980.175781 251.097656 C 972.191406 251.097656 965.585938 244.492188 965.585938 236.507813 C 965.585938 228.523438 972.191406 221.914063 980.175781 221.914063 C 988.4375 221.914063 994.769531 228.523438 994.769531 236.507813 C 995.042969 244.492188 988.4375 251.097656 980.175781 251.097656 Z M 980.175781 218.609375 C 970.265625 218.609375 962.277344 226.59375 962.277344 236.507813 C 962.277344 246.417969 970.265625 254.402344 980.175781 254.402344 C 990.089844 254.402344 998.070313 246.417969 998.070313 236.507813 C 998.070313 226.59375 990.089844 218.609375 980.175781 218.609375 Z M 975.496094 153.082031 C 975.496094 150.605469 972.742188 145.921875 969.164063 145.921875 C 966.960938 145.921875 940.527344 178.136719 929.238281 178.136719 C 919.605469 178.136719 929.238281 158.039063 929.238281 145.097656 C 929.238281 131.605469 927.035156 120.042969 913.546875 120.042969 C 895.375 120.042969 869.21875 143.445313 863.160156 147.023438 C 865.914063 141.792969 866.738281 139.316406 866.738281 135.734375 C 866.738281 128.851563 857.929688 120.867188 851.046875 120.867188 C 844.988281 120.867188 813.050781 137.386719 813.050781 158.3125 C 813.050781 163.542969 832.050781 145.097656 840.03125 147.574219 C 833.976563 155.285156 818.28125 173.730469 818.28125 180.613281 C 818.28125 183.367188 818.832031 185.847656 819.933594 187.496094 L 811.121094 187.496094 L 811.121094 197.410156 L 859.03125 197.410156 L 859.03125 187.496094 L 836.453125 187.496094 C 854.351563 175.109375 886.015625 140.691406 902.53125 140.691406 C 914.097656 140.691406 901.433594 173.730469 911.34375 187.496094 L 881.332031 187.496094 L 881.332031 197.410156 L 929.515625 197.410156 L 929.515625 192.730469 C 944.105469 188.324219 975.496094 166.296875 975.496094 153.082031 Z M 704.847656 75.4375 C 710.902344 75.4375 715.585938 70.207031 715.585938 63.597656 C 715.585938 57.265625 710.628906 52.035156 704.847656 52.035156 C 698.789063 52.035156 693.832031 57.265625 693.832031 63.597656 C 694.105469 70.207031 698.789063 75.4375 704.847656 75.4375 Z M 951.816406 187.496094 L 1000 187.496094 L 1000 197.410156 L 951.816406 197.410156 Z M 599.117188 187.496094 L 647.300781 187.496094 L 647.300781 197.410156 L 599.117188 197.410156 Z M 709.25 260.734375 C 706.222656 260.734375 704.296875 259.359375 704.296875 252.476563 C 704.296875 230.175781 750.824219 198.511719 767.070313 198.511719 C 757.433594 218.886719 717.785156 260.734375 709.25 260.734375 Z M 726.871094 172.628906 C 721.640625 167.398438 774.503906 125.273438 790.199219 127.476563 C 784.414063 145.921875 732.105469 177.863281 726.871094 172.628906 Z M 506.332031 194.65625 L 512.664063 193.832031 Z M 788.546875 189.699219 C 795.703125 180.339844 815.804688 131.332031 815.804688 124.171875 C 815.804688 112.332031 805.066406 106 793.503906 106 C 755.230469 106 693.558594 171.253906 680.617188 171.253906 C 666.023438 171.253906 688.601563 140.140625 688.601563 127.75 C 688.601563 119.765625 681.441406 111.230469 675.660156 111.230469 C 664.371094 111.230469 628.855469 145.097656 605.449219 152.804688 C 610.683594 143.996094 613.160156 134.632813 613.160156 129.402344 C 613.160156 87.828125 495.042969 103.246094 495.042969 79.84375 C 495.042969 58.917969 568.832031 22.574219 612.335938 22.574219 C 618.390625 22.574219 658.3125 25.054688 658.3125 39.09375 C 658.3125 44.324219 649.777344 45.976563 649.777344 51.210938 C 649.777344 56.441406 654.183594 57.265625 659.414063 57.265625 C 667.125 57.265625 672.355469 50.382813 672.355469 41.570313 C 672.355469 7.15625 641.519531 -0.00390625 616.738281 -0.00390625 C 552.863281 -0.00390625 476.871094 55.613281 476.871094 80.667969 C 476.871094 113.710938 584.527344 107.652344 584.527344 137.113281 C 584.527344 159.140625 540.199219 180.0625 506.332031 194.65625 L 506.332031 187.496094 L 458.148438 187.496094 L 458.148438 197.410156 L 500 197.410156 C 484.308594 204.292969 469.164063 210.902344 469.164063 213.378906 C 469.164063 222.191406 475.222656 221.363281 482.105469 221.089844 C 495.320313 221.089844 525.882813 208.972656 552.035156 197.410156 L 576.816406 197.410156 L 576.816406 187.496094 L 574.0625 187.496094 C 616.738281 164.921875 656.9375 138.488281 662.722656 132.707031 C 663.546875 150.878906 655.835938 168.226563 655.835938 175.933594 C 655.835938 183.644531 661.34375 193.554688 669.605469 194.105469 L 669.605469 197.410156 L 717.785156 197.410156 L 717.785156 187.222656 L 685.570313 187.222656 C 692.457031 182.542969 700.992188 176.210938 711.179688 170.703125 C 710.351563 176.761719 715.585938 186.398438 722.46875 186.398438 C 737.335938 186.398438 782.488281 149.777344 791.023438 143.71875 C 789.097656 160.242188 778.359375 179.238281 772.300781 186.671875 C 768.171875 185.296875 762.113281 184.746094 757.710938 184.746094 C 755.507813 184.746094 752.753906 185.570313 749.726563 186.949219 L 739.8125 186.949219 L 739.8125 193.003906 C 718.335938 208.699219 689.976563 243.113281 689.976563 261.5625 C 689.976563 271.199219 695.210938 280.558594 704.847656 280.558594 C 718.0625 280.558594 765.96875 240.914063 783.3125 200.988281 C 791.023438 201.816406 803.6875 207.597656 803.6875 201.539063 C 803.6875 195.757813 795.429688 191.351563 788.546875 189.699219 "/>
        </g>
    </g>
</svg>
