<?xml version="1.0" encoding="UTF-8"?>
<svg width="16px" height="16px" viewBox="0 0 16 16" version="1.1" xmlns="http://www.w3.org/2000/svg"
>
    <!-- Generator: Sketch 53.2 (72643) - https://sketchapp.com -->
    <title>Application_DotNet</title>
    <desc>Created with Sketch.</desc>
    <g id="Application_DotNet" stroke="none" stroke-width="1" fill="none" fill-rule="evenodd">
        <g id="netcore">
            <rect id="Rectangle" fill="#5C2D91" x="0" y="0" width="16" height="16"></rect>
            <path d="M1.97880342,10.4136752 C1.88590755,10.415139 1.79664092,10.3776471 1.73264957,10.3102906 C1.66694096,10.2453732 1.63050163,10.1564968 1.6317265,10.0641368 C1.63106326,9.97188436 1.66741654,9.88321783 1.73264957,9.81798291 C1.79602916,9.7494623 1.88547198,9.71100188 1.97880342,9.71213675 C2.07195157,9.71190886 2.16104548,9.75021924 2.22495726,9.81798291 C2.29133014,9.88264885 2.32863541,9.97147092 2.32834188,10.0641368 C2.32921047,10.1569166 2.29181414,10.2459555 2.22495726,10.3102906 C2.16045515,10.3769036 2.07152599,10.4142538 1.97880342,10.4136752 Z"
                  id="Shape" fill="#FFFFFF" fill-rule="nonzero"></path>
            <path d="M6.86988034,10.3521368 L6.22495726,10.3521368 L3.91849573,6.77305983 C3.86104332,6.68487557 3.81318169,6.59080272 3.7757265,6.49244444 L3.75603419,6.49244444 C3.77795356,6.69679418 3.78617705,6.90238145 3.78064957,7.10782906 L3.78064957,10.3521368 L3.25634188,10.3521368 L3.25634188,5.86475214 L3.93818803,5.86475214 L6.18311111,9.37982906 C6.27664957,9.52588034 6.33736752,9.62598291 6.36526496,9.68013675 L6.37757265,9.68013675 C6.35159906,9.46124927 6.34090651,9.24081818 6.34557265,9.02044444 L6.34557265,5.86475214 L6.86988034,5.86475214 L6.86988034,10.3521368 Z"
                  id="Shape" fill="#FFFFFF" fill-rule="nonzero"></path>
            <polygon id="Shape" fill="#FFFFFF" fill-rule="nonzero"
                     points="10.4194188 10.3521368 8.03418803 10.3521368 8.03418803 5.86475214 10.3086496 5.86475214 10.3086496 6.33982906 8.57080342 6.33982906 8.57080342 7.83152137 10.1904957 7.83152137 10.1904957 8.30413675 8.57080342 8.30413675 8.57080342 9.85982906 10.4218803 9.85982906"></polygon>
            <polygon id="Shape" fill="#FFFFFF" fill-rule="nonzero"
                     points="13.9418803 6.33982906 12.637265 6.33982906 12.637265 10.3521368 12.1129573 10.3521368 12.1129573 6.33982906 10.8231111 6.33982906 10.8231111 5.86475214 13.9418803 5.86475214"></polygon>
        </g>
    </g>
</svg>