<?xml version="1.0" standalone="no"?>
<!DOCTYPE svg PUBLIC "-//W3C//DTD SVG 20010904//EN"
        "http://www.w3.org/TR/2001/REC-SVG-20010904/DTD/svg10.dtd">
<svg version="1.0" xmlns="http://www.w3.org/2000/svg"
     width="225.000000pt" height="225.000000pt" viewBox="0 0 225.000000 225.000000"
     preserveAspectRatio="xMidYMid meet">

    <g transform="translate(0.000000,225.000000) scale(0.100000,-0.100000)"
       fill="#000000" stroke="none">
        <path d="M710 2099 c-125 -21 -237 -107 -293 -226 -25 -55 -32 -84 -35 -153
l-4 -85 45 3 45 4 4 76 c6 124 62 212 173 270 47 26 57 27 195 27 127 0 151
-3 191 -21 90 -42 164 -131 184 -221 l7 -33 141 0 c78 0 159 -5 179 -10 59
-17 119 -69 152 -133 l29 -57 48 0 c67 0 167 -35 225 -79 61 -46 120 -129 141
-201 19 -63 22 -214 5 -273 -10 -37 -10 -38 28 -57 21 -11 41 -17 43 -12 12
19 27 134 27 207 0 153 -51 277 -154 372 -72 67 -153 107 -246 123 -61 10 -69
14 -80 41 -19 44 -112 124 -166 143 -34 11 -84 16 -174 16 l-126 0 -28 60
c-53 112 -173 199 -303 220 -69 12 -177 11 -253 -1z"/>
        <path d="M322 1434 c-230 -62 -364 -306 -293 -535 49 -155 180 -266 344 -290
34 -5 194 -9 355 -9 l292 0 0 44 0 45 -337 3 c-323 3 -340 4 -385 25 -219 101
-268 385 -96 549 86 83 106 89 341 92 l207 3 0 45 0 44 -187 -1 c-129 0 -205
-5 -241 -15z"/>
        <path d="M1539 1111 c-23 -24 -29 -38 -29 -74 0 -59 -22 -65 -73 -20 -52 46
-77 43 -142 -17 -72 -69 -78 -118 -18 -166 19 -15 24 -26 19 -42 -6 -19 -15
-22 -55 -22 -72 0 -91 -25 -91 -121 0 -92 20 -119 88 -119 61 0 70 -24 26 -72
-52 -57 -47 -89 21 -155 67 -65 92 -68 158 -17 26 20 47 40 47 44 0 3 -11 17
-25 30 l-26 24 -31 -32 -32 -32 -37 36 -36 35 45 44 c36 33 44 46 36 56 -6 8
-19 35 -29 62 l-18 47 -58 0 -59 0 0 50 0 50 65 0 c54 0 65 3 65 17 0 9 10 36
21 61 l22 44 -44 44 -43 44 35 36 36 35 36 -44 36 -45 65 26 65 26 3 60 3 61
50 0 50 0 3 -67 c3 -60 5 -68 23 -68 11 0 38 -9 60 -20 l40 -21 50 42 50 42
35 -34 34 -33 -44 -46 -44 -45 24 -50 c13 -27 24 -54 24 -60 0 -6 28 -10 62
-10 l63 0 3 -52 3 -53 -65 0 c-50 0 -66 -3 -66 -14 0 -8 -9 -36 -20 -62 l-21
-47 43 -44 42 -43 -34 -35 -35 -35 -47 41 -47 40 -66 -23 -65 -23 0 -62 0 -63
-50 0 -50 0 0 50 0 50 -38 0 -37 0 5 -66 c7 -88 26 -104 121 -104 90 0 119 23
126 97 6 59 29 75 60 41 23 -26 66 -48 93 -48 25 0 119 85 132 119 12 32 -6
75 -39 96 -16 11 -23 24 -21 38 3 19 11 23 55 27 80 8 98 31 98 125 0 95 -17
116 -99 123 -71 6 -79 24 -31 67 54 50 49 86 -18 153 -65 64 -102 69 -158 23
-52 -43 -79 -34 -79 28 -1 75 -34 101 -130 101 -55 0 -65 -3 -91 -29z"/>
        <path d="M1563 801 c-118 -54 -132 -225 -24 -298 67 -46 149 -42 207 9 43 38
64 77 64 118 0 27 -3 30 -34 30 -30 0 -34 -3 -40 -33 -15 -80 -107 -109 -166
-52 -77 74 3 198 105 162 16 -5 24 -1 38 22 9 16 17 32 17 35 0 7 -71 26 -100
26 -14 0 -44 -9 -67 -19z"/>
    </g>
</svg>
